# xmcd
#
# Track frame offsets:
#	150
#	23568
#	41975
#	61631
#	91216
#	107140
#	129031
#	154411
#	191092
#	209771
#	236492
#
# Disc length: 3517 seconds
#
# Revision: 1
# Processed by: cddbd v1.5.2PL0 Copyright (c) Steve Scherf et al.
# Submitted via: audiograbber 1.83.01
#
DISCID=900dbb0b
DTITLE=Nerak Roth Patterson - Bluesdaddy!
DYEAR=2004
DGENRE=
TTITLE0=Gator Meat
TTITLE1=You're Fired
TTITLE2=Poppa
TTITLE3=Truckin' Mans Blues
TTITLE4=In My Dreams
TTITLE5=Closer To My Heart
TTITLE6=She Loves Me, Too
TTITLE7=Bluesdriver
TTITLE8=Watchin' You
TTITLE9=Please, Please
TTITLE10=Slow Dance
EXTD=
EXTT0=
EXTT1=
EXTT2=
EXTT3=
EXTT4=
EXTT5=
EXTT6=
EXTT7=
EXTT8=
EXTT9=
EXTT10=
PLAYORDER=
